<?xml version="1.0" encoding="UTF-8"?>
<!-- Creator: CorelDRAW 2023 -->
<svg xmlns="http://www.w3.org/2000/svg" xmlns:xlink="http://www.w3.org/1999/xlink" xmlns:xodm="http://www.corel.com/coreldraw/odm/2003" xml:space="preserve" width="200px" height="200px" version="1.1" style="shape-rendering:geometricPrecision; text-rendering:geometricPrecision; image-rendering:optimizeQuality; fill-rule:evenodd; clip-rule:evenodd" viewBox="0 0 199.99 199.99">
 <defs>
  <style type="text/css">
   <![CDATA[
    .fil0 {fill:none}
    .fil2 {fill:#008FB8}
    .fil5 {fill:#8D9D43}
    .fil4 {fill:#D41E72}
    .fil3 {fill:#E72330}
    .fil1 {fill:#F4811E}
   ]]>
  </style>
 </defs>
 <g id="Layer_x0020_1">
  <metadata id="CorelCorpID_0Corel-Layer"></metadata>
  <rect class="fil0" width="199.99" height="199.99"></rect>
  <g id="_1792811226592">
   <path class="fil1" d="M73.68 47.09c1.42,-1.14 9.89,-5.82 12.21,-6.98 6.2,-3.05 13.66,-6.09 20.17,-8.44 6.98,-2.51 20.55,-5.21 27.92,-5.4 5.29,-0.13 9.32,0.26 14.5,1.14 2.6,0.42 5.21,0.09 6.67,-2.33 1.61,-2.7 -1,-5.45 -2.86,-7.1l-1.84 -1.26c-0.12,-0.08 -0.23,-0.15 -0.31,-0.2 -2.63,-1.43 -10.18,-2.91 -13.3,-3.37 -8.7,-1.27 -18.87,-1.34 -27.52,0.28 -3.72,0.7 -7.44,1.39 -11.17,2.09l-1.31 0.25c-1.87,0.67 -4.57,1.25 -6.59,1.89l-4.6 1.65c-1.55,0.72 -3.03,1.14 -4.62,1.77 -3.14,1.25 -8.09,3.44 -10.78,4.98l-2.69 1.44c-0.03,0.02 -0.08,0.05 -0.11,0.07 -1.37,0.89 -11.74,7.46 -12.01,7.89 -2.65,4.18 -6.07,16.07 -6.88,21.21 -0.66,4.14 -1.17,8.33 -1.24,12.53 3.08,-2.9 5.28,-5.42 8.87,-8.27 5.83,-4.61 11.69,-9.19 17.49,-13.84z"></path>
   <path class="fil2" d="M131.79 153.04c-0.24,-0.56 -0.15,-0.28 -0.63,-0.16 -0.4,0.1 -0.7,0.18 -1.16,0.25 -0.74,0.11 -1.62,0.19 -2.3,0.33l-2.14 0.45c-0.82,0.09 -1.69,0.13 -2.43,0.33 -1.98,0.47 -4.03,0.43 -6.15,0.8 -2.28,0.39 -8.1,0.49 -10.62,0.54 -6.6,0.15 -11.52,-0.45 -18,-1.19 -4.74,-0.55 -10.9,-2.03 -15.73,-2.99 -2.48,-0.5 -4.26,-0.83 -6.65,-1.53 -2.85,-0.84 -4.98,-1.49 -7.83,-2.52 -5.77,-2.07 -10.28,-4.09 -15.73,-6.91 -1.69,-0.87 -4.74,-3.08 -6.46,-4.22 -1.29,-0.85 -2.57,-1.7 -3.85,-2.54 -0.04,-0.03 -0.16,-0.12 -0.2,-0.15 -0.03,-0.03 -0.07,-0.06 -0.1,-0.08 -0.03,-0.02 -0.07,-0.05 -0.1,-0.07 -0.33,-0.24 -0.43,-0.3 -0.75,-0.63l-6.1 -5.68c-0.03,-0.03 -0.14,-0.13 -0.17,-0.17 -0.04,-0.04 -1.06,-1.1 -2.01,-1.64 -1.5,-0.86 -4,-0.63 -5.23,0.51 -1.53,1.43 -1.67,4.51 -1.04,6.47 0.52,1.59 1.32,3.71 2.24,4.85 0.08,0.1 0.19,0.22 0.31,0.38 0.03,0.04 0.12,0.16 0.16,0.2 0.02,0.03 0.05,0.07 0.07,0.1l0.7 0.86c0.07,0.09 0.22,0.26 0.31,0.36 0.09,0.1 0.25,0.29 0.32,0.37l3.99 4.51c1.59,1.7 3.32,3.43 5.12,4.92 0.02,0.03 0.07,0.06 0.09,0.08 0.03,0.03 0.07,0.06 0.1,0.08 0.03,0.02 0.07,0.05 0.1,0.08 0.41,0.35 0.25,0.29 0.71,0.66 0.18,0.14 0.25,0.17 0.41,0.29 0.03,0.02 0.07,0.05 0.1,0.08l1.42 1.17c0.03,0.03 0.08,0.06 0.11,0.08l9.44 6.65c0.6,0.36 1.11,0.62 1.73,1.02l5.88 3.3c0.55,0.26 0.47,0.28 0.9,0.5l6.28 2.88c0.45,0.17 0.55,0.18 0.98,0.4 1.09,0.56 2.57,1.01 3.7,1.5 4.36,1.89 11.7,3.61 16.24,4.88 4.56,0.87 9.1,1.9 13.71,2.37 1.54,0.16 3.09,0.32 4.63,0.48 1.65,0.08 7.39,0.52 8.98,0.11l4.39 -2.39c0.2,-0.13 -0.03,0 0.31,-0.21l4.83 -3.13c0.03,-0.02 0.07,-0.06 0.1,-0.08 0.02,-0.02 0.06,-0.05 0.09,-0.07l3.68 -2.91c0.04,-0.03 0.17,-0.11 0.21,-0.14 0.31,-0.23 0.36,-0.3 0.63,-0.56l1.12 -0.97c0.03,-0.02 0.07,-0.06 0.1,-0.08l9.53 -10.03c0.16,-0.2 0.15,-0.19 0.31,-0.38 0.38,-0.48 0.81,-1.22 1.35,-1.41z"></path>
   <path class="fil3" d="M24.67 86.07c0.13,13.64 1.8,22.52 5.23,35.66 0.95,3.64 0.72,2.96 3.52,5.55 8.06,7.37 15.65,11.16 25.55,15.32 2.27,0.95 0.93,-0.7 0.14,-2.14 -3.7,-6.8 -6.76,-13.54 -9.04,-20.95 -1.59,-5.28 -3.26,-10.86 -4.29,-16.26 -0.33,-1.75 -0.63,-3.52 -1.01,-5.26 -0.16,-0.69 -0.22,-1.73 -0.29,-2.44 -0.11,-1 -0.25,-1.52 -0.39,-2.23 -0.14,-0.7 -0.18,-1.67 -0.24,-2.4 -0.15,-1.8 -0.42,-3.08 -0.52,-4.81 -0.63,-10.6 -0.61,-19.56 1.05,-30 0.28,-1.77 0.38,-2.39 0.8,-3.99 0.97,-3.69 1.43,-6.49 2.93,-10.08 1.33,-3.18 2.31,-5.53 3.89,-8.59 1.27,-2.43 1.68,-4.31 -0.22,-6.69l-0.65 -0.58c-0.15,-0.12 0,-0.05 -0.31,-0.21 -2.2,-1.16 -5.28,0.31 -7.08,1.6l-0.21 0.15c-0.03,0.02 -0.07,0.05 -0.1,0.07l-1.33 1.1c-0.11,0.1 -0.22,0.22 -0.34,0.35l-0.87 1.03c-0.03,0.04 -0.12,0.16 -0.15,0.2l-2.73 4.21c-0.19,0.29 -0.21,0.32 -0.4,0.63l-1.25 2.2c-0.55,1.08 -1.07,1.92 -1.6,3.07l-1.1 2.21c-1.61,3.53 -2.9,7.33 -4.17,11.05l-1.47 5.28c-0.15,0.73 -0.19,1.29 -0.44,1.99 -0.5,1.39 -1.35,6.41 -1.57,7.79 -0.21,1.29 -0.17,2.84 -0.48,4.01 -0.51,1.89 -0.86,11.06 -0.86,13.16z"></path>
   <path class="fil4" d="M155.26 119.54l-5.12 11.67c-0.26,0.58 -0.26,0.45 -0.49,0.9l-6.58 11.78c-0.02,0.03 -0.05,0.07 -0.07,0.1l-3.68 5.49c-0.13,0.19 -0.17,0.28 -0.26,0.43l-4.58 6.13c-0.03,0.03 -0.06,0.07 -0.08,0.1l-1.68 2.16c-0.25,0.33 -0.07,0.09 -0.31,0.36l-3.98 4.51c-0.02,0.03 -0.06,0.07 -0.08,0.09l-4.2 4.28c-0.03,0.03 -0.06,0.06 -0.09,0.09 -0.14,0.13 -0.22,0.2 -0.36,0.33l-2.39 2.11c-0.03,0.03 -0.07,0.06 -0.1,0.08l-6.78 5.15c-0.03,0.02 -0.08,0.05 -0.11,0.07 -0.28,0.17 -0.1,0.05 -0.43,0.27l-2.19 1.28c-0.03,0.02 -0.08,0.04 -0.11,0.06 -2.15,1.27 -3.54,1.96 -5.72,3.06 -7.72,3.89 -2.94,12.79 9.04,8.56 2.56,-0.9 7.21,-3.04 9.68,-4.34 2.22,-1.16 5.33,-3.26 7.59,-4.64 3.07,-1.88 6.31,-4.69 9.02,-7.08 1.85,-1.64 3.7,-3.27 5.55,-4.9 0.03,-0.02 0.06,-0.06 0.09,-0.09l2.06 -2.09c0.02,-0.03 0.05,-0.07 0.08,-0.09l3.38 -3.71c0.03,-0.02 0.06,-0.06 0.09,-0.08 0.02,-0.03 0.06,-0.06 0.08,-0.09 0.03,-0.03 0.07,-0.06 0.09,-0.09l11.14 -15.01c0.28,-0.41 0.25,-0.45 0.53,-0.85l3.34 -5.67c0.02,-0.04 0.04,-0.08 0.06,-0.12 0.02,-0.03 0.04,-0.08 0.06,-0.11 0.02,-0.03 0.05,-0.07 0.07,-0.1 2.22,-3.78 3.61,-7.44 5.52,-11.27 0.9,-1.86 3.41,-8.23 3.25,-10.3 -0.4,-5.29 -3.44,-14.49 -6.24,-19.47 -2.29,-4.07 -4.57,-8.15 -6.87,-12.22 -0.89,5.43 -1.7,11.99 -3.04,17.23 -1.22,4.78 -3.24,11.52 -5.18,16.03z"></path>
   <path class="fil5" d="M184.49 79.98c-0.16,-0.3 0.05,0.15 -0.19,-0.33l-2.45 -5.17c-0.02,-0.04 -0.05,-0.08 -0.07,-0.11l-0.47 -0.91c-0.25,-0.53 -0.25,-0.43 -0.45,-0.77 -0.16,-0.26 -0.27,-0.56 -0.4,-0.8 -0.16,-0.29 -0.12,-0.2 -0.19,-0.31l-6.26 -10.03c-0.02,-0.03 -0.06,-0.07 -0.08,-0.1 -0.14,-0.21 -0.33,-0.53 -0.48,-0.74l-2.65 -3.59c-0.03,-0.03 -0.06,-0.07 -0.08,-0.1l-2.38 -2.95c-0.03,-0.03 -0.06,-0.07 -0.08,-0.1l-2.52 -3.03c-0.06,-0.07 -0.24,-0.27 -0.32,-0.37 -2.57,-2.93 -6.03,-6.22 -8.82,-9.16 -1.08,-1.13 -4.31,-3.64 -5.64,-4.74 -1.4,-1.17 -3.66,-3.14 -5.17,-4.06 -4.34,-2.17 -16.81,-1.39 -21.72,-0.65 -1.89,0.28 -12.66,2.13 -13.24,2.95 0.3,0.43 6.11,3.15 7.21,3.72 3.23,1.68 6.86,3.81 9.9,5.79 0.63,0.42 1.03,0.64 1.68,1.09 0.22,0.16 0.54,0.38 0.82,0.58 0.21,0.15 0.52,0.38 0.81,0.58l7.7 5.8c0.21,0.17 0.5,0.42 0.74,0.63l0.85 0.7c0.02,0.03 0.06,0.06 0.09,0.09l0.75 0.64c0.03,0.02 0.07,0.05 0.09,0.08l11.27 10.72c0.13,0.13 0.2,0.2 0.34,0.33l11.13 13.3c0.19,0.25 0.27,0.35 0.52,0.68 2.78,4.01 4.02,5.96 6.61,10.11 -0.03,-0.05 4.91,8.59 6.42,13.07 1.61,4.74 2.59,7.93 3.44,12.98 0.3,1.75 0.5,3.35 1,5.07 0.14,0.35 0.31,0.57 0.52,0.87 4.04,4.81 8.48,0.61 8.76,-4.36 0.16,-2.91 0.03,-7.03 0,-10.05 -0.07,-7.87 -1.85,-14.56 -4.69,-21.87 -0.58,-1.47 -1.65,-4.17 -2.3,-5.48z"></path>
   <path class="fil5" d="M66.36 22.69l4.39 -2.19c0.93,-0.46 2.03,-0.82 2.89,-1.28 4.59,-1.9 7.55,-3.25 12.23,-4.65 3.21,-0.97 6.67,-1.89 9.8,-3.01 -3.04,-1.45 -28.31,-4.15 -31.99,-2.67 -4.93,2 -6.98,13.29 -0.61,14.28l0.8 0.09c0.96,0.03 1.65,-0.13 2.49,-0.57z"></path>
   <path class="fil4" d="M181.32 65.5c-0.05,-1.67 -1.08,-8.24 -1.54,-10.59l-1.62 -7.04c-0.32,-0.9 -0.34,-1.81 -0.7,-2.76 -0.77,-2.47 -2.82,-10.58 -4.47,-11.98 -3.89,-3.33 -14.77,-1.59 -12.89,5.3l0.25 0.78c0.45,1.16 3.35,3.8 4.41,4.99 2.45,2.78 4.91,5.55 7.36,8.32 0.01,0.01 0.21,0.29 0.22,0.3l6.56 9.04c0.16,0.23 0.17,0.24 0.33,0.53l1.08 1.67c0.02,0.04 0.05,0.08 0.07,0.11 0.49,0.77 0.3,0.74 0.94,1.33z"></path>
   <path class="fil3" d="M58.15 170.44c0.3,0.1 0.2,0.09 0.41,0.31 2.53,2.66 3.28,3.71 6.53,6.64l1.35 1.25c0.11,0.11 0.27,0.28 0.42,0.42 0.04,0.04 0.14,0.14 0.18,0.17l0.19 0.17c0.03,0.02 0.07,0.05 0.09,0.08 3.61,3.1 12.78,11.98 17.3,12.05 5.73,0.09 12.4,-7.96 6,-12.1 -1.39,-0.9 -6.56,-1.43 -8.65,-1.88 -1.45,-0.31 -2.9,-0.65 -4.35,-0.99l-0.64 -0.14c-0.89,-0.32 -2.04,-0.45 -2.89,-0.75 -0.5,-0.17 -0.95,-0.21 -1.44,-0.31l-7.99 -2.58c-1.76,-0.69 -3.23,-1.06 -5.1,-1.98 -0.48,-0.23 -0.89,-0.34 -1.41,-0.36z"></path>
   <path class="fil2" d="M156.95 163.42c0.52,-0.26 -0.02,-0.04 0.5,-0.29 0.27,-0.13 0.38,-0.15 0.64,-0.25 0.31,-0.13 0.31,-0.15 0.57,-0.29 1.85,-1.01 3.78,-1.68 5.53,-2.77 4.16,-2.37 19.88,-10.78 21.07,-14.76 1.41,-4.74 -2.82,-14.1 -9.3,-10.12 -1.78,1.1 -3.08,4.85 -4.2,6.88 -1.84,3.32 -3.86,6.44 -5.87,9.65 -0.02,0.03 -0.05,0.07 -0.07,0.1l-6.47 8.76c-0.52,0.67 -2.25,2.43 -2.4,3.09z"></path>
   <path class="fil1" d="M20.3 85.55l0.05 -9.25 -1.76 2.99c-0.01,0.03 -0.04,0.07 -0.06,0.11 -0.08,0.12 -0.12,0.2 -0.19,0.34 -0.35,0.74 -0.55,1.23 -0.96,1.99l-2.76 5.9c-0.22,0.52 -0.64,1.43 -0.92,2.01 -1.58,3.83 -3.31,8.19 -4.59,12.1 -1.59,4.89 -0.46,8.01 4.22,10.5 3.51,1.87 7.59,1.28 8.84,-2.95 0.27,-0.93 -1.08,-9.32 -1.21,-11.04l-0.11 -1.44c-0.12,-1.84 -0.36,-3.54 -0.45,-5.42 -0.07,-1.88 -0.16,-3.97 -0.1,-5.84z"></path>
  </g>
 </g>
</svg>
